<?xml version="1.0" encoding="utf-8"?>
<!DOCTYPE svg PUBLIC "-//W3C//DTD SVG 1.0//EN" "http://www.w3.org/TR/2001/REC-SVG-20010904/DTD/svg10.dtd">
<svg version="1.0" xmlns="http://www.w3.org/2000/svg" width="947px" height="308px" viewBox="0 0 947 308" preserveAspectRatio="xMidYMid meet">
 <g fill="#000000">
  <path d="M156.35 242.70 c-0.20 -0.20 -0.35 -3.80 -0.35 -8 l0 -7.65 -2.35 -0.15 -2.40 -0.15 -0.15 -2.30 c-0.10 -1.45 0.10 -2.50 0.50 -2.80 0.45 -0.40 3.15 -0.45 8.05 -0.30 l7.40 0.30 -0.15 2.55 -0.15 2.55 -2.35 0.15 -2.35 0.15 -0.15 7.85 -0.15 7.85 -2.50 0.15 c-1.40 0.10 -2.70 0 -2.90 -0.20z"/>
  <path d="M180.35 242.70 c-0.20 -0.20 -0.35 -5.05 -0.35 -10.80 0 -7.90 0.15 -10.50 0.65 -10.65 0.30 -0.15 3.15 -0.05 6.30 0.20 5.55 0.40 5.75 0.45 7.15 2 1.25 1.40 1.40 1.90 1.40 5.25 0 2.95 -0.20 3.90 -1.05 4.95 l-1 1.35 1.55 2.25 c1.10 1.65 1.50 2.70 1.40 3.90 -0.15 1.55 -0.20 1.60 -2.75 1.75 -2.65 0.15 -2.65 0.15 -4.25 -2.20 -3.40 -4.90 -3.25 -4.85 -3.70 -1.20 l-0.45 3.25 -2.25 0.15 c-1.25 0.10 -2.45 0 -2.65 -0.20z m8.70 -13 c0.75 -0.90 -0.70 -2.70 -2.15 -2.70 -0.70 0 -0.90 0.40 -0.90 1.95 0 1.75 0.10 1.90 1.25 1.70 0.65 -0.15 1.50 -0.60 1.80 -0.95z"/>
  <path d="M209.35 242.70 c-0.80 -0.80 -0.25 -3.95 1.35 -7.80 4.90 -11.65 5.65 -13.10 7.35 -13.55 3.65 -0.95 3.75 -0.90 8 8.65 2.50 5.65 3.90 9.40 3.90 10.65 l0.05 1.85 -3 0 c-2.75 0 -3 -0.10 -3.30 -1.20 -0.55 -2.20 -1.70 -2.80 -4.75 -2.45 -2.55 0.25 -2.85 0.40 -3.75 2.10 -0.85 1.60 -1.20 1.80 -3.20 1.95 -1.25 0.10 -2.45 0 -2.65 -0.20z m10.65 -9.95 c0 -0.40 -0.20 -0.75 -0.45 -0.75 -0.25 0 -0.55 0.35 -0.75 0.75 -0.15 0.45 0 0.75 0.45 0.75 0.40 0 0.75 -0.35 0.75 -0.75z"/>
  <path d="M243.65 242.70 c-0.50 -0.20 -0.65 -2.85 -0.65 -10.70 l0 -10.45 1.65 -0.30 c2.55 -0.45 10.65 0.50 12.05 1.40 0.70 0.45 1.85 1.65 2.60 2.65 1.20 1.55 1.40 2.35 1.60 5.90 0.15 3.25 0.05 4.50 -0.65 5.85 -1.25 2.45 -3.15 4.35 -4.95 4.90 -1.85 0.55 -10.80 1.15 -11.65 0.75z m9.50 -7.60 c0.75 -0.75 1.50 -1.85 1.65 -2.45 0.40 -1.45 -1.45 -4.50 -2.95 -4.90 -3.10 -0.90 -2.85 -1.25 -2.85 4.25 l0 5.10 1.40 -0.35 c0.75 -0.15 2 -0.90 2.75 -1.65z"/>
  <path d="M274.20 242.35 c-0.10 -0.35 -0.15 -5.25 -0.10 -10.85 l0.15 -10.25 5.50 -0.05 c8.40 -0.10 8.25 -0.15 8.25 3.10 l0 2.70 -4 0 c-3.65 0 -4 0.10 -4 1 0 0.85 0.35 1 2.45 1 3.55 0 4.05 0.30 4.05 2.50 0 3.25 -0.25 3.50 -3.55 3.50 -2.60 0 -2.95 0.10 -2.95 1 0 0.90 0.35 1 4.25 1 l4.25 0 0 2.70 0 2.65 -4.60 0.35 c-6.90 0.45 -9.40 0.40 -9.70 -0.35z"/>
  <path d="M325.10 233.60 c-1.70 -5.15 -3.10 -9.95 -3.10 -10.70 0 -1.40 1 -1.90 3.80 -1.90 2 0 2.30 0.45 3.75 4.90 l1.15 3.60 1.55 -4.10 c1.35 -3.75 1.65 -4.15 2.95 -4.30 3.05 -0.35 3.60 0.10 5.10 4.45 l1.40 4.05 1.30 -3.70 c0.70 -2 1.45 -3.95 1.65 -4.30 0.25 -0.35 1.50 -0.60 2.90 -0.60 l2.45 0 0 2.15 c0 2 -4.65 17.90 -5.65 19.25 -0.65 0.80 -4.10 0.75 -4.80 -0.10 -0.30 -0.35 -1.20 -2.45 -1.95 -4.70 l-1.40 -4 -1.45 4.20 c-1.50 4.50 -2.15 5.20 -4.90 5.20 l-1.70 0 -3.05 -9.40z"/>
  <path d="M364.15 242.65 c-1.15 -0.20 -1.15 -0.25 -1.15 -10.65 l0 -10.45 1.70 -0.30 c0.90 -0.20 2.20 -0.25 2.85 -0.15 l1.20 0.15 0 10.75 0 10.75 -1.75 0.05 c-0.95 0.05 -2.25 0 -2.85 -0.15z"/>
  <path d="M387.65 242.70 c-0.50 -0.20 -0.65 -2.30 -0.65 -8 l0 -7.70 -2.20 0 c-2.45 0 -2.80 -0.40 -2.80 -3.55 l0 -1.95 5.75 -0.10 c3.15 -0.05 6.60 -0.10 7.65 -0.10 l1.85 -0.05 0.15 2.90 0.15 2.85 -2.25 0 -2.25 0 -0.15 7.90 -0.15 7.85 -2.25 0.10 c-1.25 0.05 -2.55 0 -2.85 -0.15z"/>
  <path d="M422.90 242.65 c-0.75 -0.20 -0.90 -0.85 -0.90 -3.95 l0 -3.75 -2.60 0.15 -2.65 0.15 -0.15 3.65 -0.15 3.60 -2.70 0 -2.75 0 0 -10.45 c0 -10.40 0 -10.45 1.15 -10.75 0.60 -0.15 1.85 -0.30 2.75 -0.30 l1.60 0 0 4 c0 3.90 0.05 4 1.20 4 0.65 0 1.90 0.15 2.75 0.30 l1.55 0.35 0 -4.05 0 -4.05 1.70 -0.30 c0.90 -0.20 2.20 -0.25 2.85 -0.15 l1.20 0.15 0 10.75 0 10.75 -2 0.10 c-1.10 0 -2.40 -0.05 -2.85 -0.20z"/>
  <path d="M447.35 242.30 c-2.40 -0.90 -3.70 -2.05 -4.95 -4.50 -0.80 -1.60 -0.95 -2.70 -0.80 -6.50 0.10 -3.85 0.35 -4.80 1.35 -6.25 3.90 -5.45 14.70 -5.30 18.50 0.25 1.45 2.10 2.05 8.40 1.10 11.35 -0.75 2.25 -3.90 5.10 -6.40 5.80 -2.60 0.75 -6.50 0.65 -8.80 -0.15z m7.75 -7.30 c1.70 -1.65 1.95 -2.20 1.70 -3.35 -0.20 -0.80 -1.15 -2.15 -2.10 -3.05 -1.40 -1.35 -2.05 -1.65 -3.10 -1.40 -1.65 0.40 -4.10 2.95 -4.10 4.35 0 2.35 2.70 5.35 4.95 5.45 0.35 0 1.55 -0.90 2.65 -2z"/>
  <path d="M479.45 241.85 c-2.75 -1.85 -2.95 -2.70 -2.80 -12.10 l0.10 -8.50 2.50 0 2.50 0 0.25 6.85 c0.25 5.70 0.45 7 1.25 7.85 1.15 1.30 1.45 1.30 2.75 -0.05 0.90 -1 1 -1.75 1 -7.70 l0 -6.65 2.25 -0.35 c3.95 -0.55 3.85 -0.80 3.65 8.95 -0.15 9.60 -0.45 10.55 -3.65 12.05 -2.60 1.25 -7.70 1.05 -9.80 -0.35z"/>
  <path d="M556.40 242.70 c-0.25 -0.20 -0.40 -5.05 -0.40 -10.75 l0 -10.35 3.90 -0.30 c4.85 -0.45 9.05 0.30 10.25 1.85 0.65 0.85 0.85 1.90 0.80 4.35 -0.05 2.15 0.20 3.90 0.80 5.25 1.30 2.95 0.75 6.55 -1.25 8.40 -1.20 1.10 -2 1.35 -3.95 1.35 -1.30 0 -4.05 0.15 -6.10 0.30 -2.05 0.15 -3.85 0.15 -4.05 -0.10z m8.30 -6.20 c1.65 -0.60 1.65 -1.20 0.05 -1.90 -2.10 -0.95 -2.75 -0.75 -2.75 0.90 0 1.65 0.55 1.85 2.70 1z m-0.50 -8.45 c0.15 -0.25 -0.05 -0.60 -0.50 -0.75 -1.25 -0.50 -1.70 -0.35 -1.70 0.45 0 0.80 1.75 1.05 2.20 0.30z"/>
  <path d="M591.90 242.55 c-2.30 -0.75 -4.15 -2.10 -5.40 -3.95 -1.10 -1.60 -1.25 -2.30 -1.25 -6.60 0 -4.30 0.15 -5 1.25 -6.65 1.85 -2.65 4.50 -3.95 8.70 -4.20 3.15 -0.20 3.85 -0.05 6.30 1.20 3.70 1.90 5 4.35 5 9.55 0 7.20 -3 10.60 -9.65 10.90 -2 0.10 -4.20 0 -4.95 -0.25z m6.35 -7.10 c2.30 -2.05 2.65 -3.45 1.30 -5.60 -1.40 -2.25 -3.25 -3.10 -5.15 -2.30 -1.80 0.75 -3.60 3.60 -3.20 5.15 0.35 1.35 3.45 4.30 4.55 4.30 0.40 0 1.50 -0.70 2.50 -1.55z"/>
  <path d="M620.35 242.65 c-0.50 -0.50 -0.40 -21.05 0.10 -21.35 0.25 -0.15 3 -0.15 6.10 0.05 5.60 0.30 5.75 0.35 7.35 1.95 1.50 1.50 1.60 1.80 1.60 5.35 0 3 -0.20 3.95 -1.05 5 l-1 1.35 1.55 2.25 c1.10 1.65 1.50 2.70 1.40 3.90 -0.15 1.55 -0.20 1.60 -2.75 1.75 -2.55 0.15 -2.65 0.10 -4 -1.90 -0.80 -1.15 -1.90 -2.65 -2.50 -3.40 l-1.10 -1.35 -0.05 3.05 c0 2.35 -0.20 3.15 -0.80 3.40 -1.05 0.40 -4.45 0.40 -4.85 -0.05z m8.60 -12.95 c0.65 -0.60 0.60 -0.80 -0.20 -1.70 -0.50 -0.55 -1.30 -1 -1.85 -1 -0.70 0 -0.90 0.40 -0.90 2.05 0 1.85 0.10 2 1.15 1.70 0.60 -0.20 1.40 -0.65 1.80 -1.05z"/>
  <path d="M649.85 242.65 c-0.45 -0.40 -0.45 -19.75 -0.05 -20.85 0.25 -0.60 1.05 -0.80 3.65 -0.80 10.60 0 14.05 2.75 14.05 11.05 0 3.50 -0.20 4.45 -1.25 6.30 -1.85 3.10 -3.85 3.95 -10.55 4.35 -3.05 0.15 -5.70 0.15 -5.85 -0.05z m10.30 -7.70 c1.55 -1.65 1.75 -3.65 0.55 -5.40 -0.75 -1.05 -3.50 -2.55 -4.70 -2.55 -0.30 0 -0.50 1.90 -0.50 5 l0 5 1.65 -0.30 c0.85 -0.15 2.20 -0.95 3 -1.75z"/>
  <path d="M681.40 242.70 c-0.25 -0.20 -0.40 -5.15 -0.40 -11 l0 -10.65 6.75 0.05 c6.65 0.05 6.80 0.10 7.05 1.25 0.20 0.65 0.15 1.95 0 2.90 l-0.35 1.70 -3.85 0.15 c-3.15 0.10 -3.85 0.30 -4 1 -0.15 0.70 0.35 0.85 3 1 l3.15 0.15 0.15 2.60 c0.15 2.45 0.05 2.65 -1.15 2.95 -0.70 0.15 -2.05 0.20 -3 0.05 -1.60 -0.25 -2.25 0.20 -2.25 1.70 0 0.25 1.90 0.45 4.20 0.45 l4.20 0 0.30 1.55 c0.75 3.90 0.75 3.95 -3.65 3.95 -2.15 0 -5.25 0.15 -6.85 0.30 -1.60 0.15 -3.10 0.15 -3.30 -0.10z"/>
  <path d="M708.25 241.90 c-0.15 -0.65 -0.20 -5.55 -0.15 -10.90 l0.15 -9.75 5.75 0.15 c3.15 0.10 6.30 0.45 7 0.75 2.05 0.95 3.10 3.60 2.90 7.45 -0.15 2.35 -0.45 3.60 -1.10 4.35 -0.90 1 -0.90 1.10 0.40 3.05 0.85 1.30 1.30 2.65 1.30 4 0 1.85 -0.10 2 -1.45 2 -3.40 0 -4.30 -0.50 -6.30 -3.55 -1.05 -1.60 -2.10 -2.95 -2.35 -2.95 -0.20 0 -0.40 1.35 -0.40 2.95 0 3.30 -0.25 3.55 -3.55 3.55 -1.60 0 -2 -0.20 -2.20 -1.10z m8.45 -11.70 c1.10 -0.40 1 -2.05 -0.15 -2.70 -1.85 -0.95 -2.55 -0.60 -2.55 1.25 0 1.80 0.75 2.20 2.70 1.45z"/>
  <path d="M739.95 242.25 c-2.80 -1.50 -4.05 -6.10 -2 -7.25 1.80 -0.95 3.85 -0.60 4.75 0.75 0.80 1.25 2.50 1.65 3.05 0.75 0.35 -0.55 -1.30 -1.65 -3.95 -2.55 -3.10 -1.10 -4.30 -2.95 -4.30 -6.60 0.05 -3.55 0.60 -4.50 3.15 -5.60 3.65 -1.50 8.85 -0.60 10.55 1.80 1.05 1.55 1 3.90 -0.05 4.75 -1.35 1 -3.85 0.85 -4.90 -0.30 -0.95 -1 -2.25 -1.35 -2.25 -0.55 0 0.25 1.45 1.05 3.25 1.80 4.30 1.85 4.90 2.60 5.15 6.45 0.25 3.65 -0.30 4.95 -2.55 6.30 -1.95 1.20 -7.90 1.35 -9.90 0.25z"/>
  <path d="M511 234.80 l0 -7.75 -2.35 -0.15 -2.40 -0.15 0 -2.75 0 -2.75 4.50 -0.05 c2.50 0 5.90 0.05 7.65 0.20 l3.10 0.20 0 2.70 0 2.70 -2.25 0 -2.25 0 0 7.75 0 7.75 -3 0 -3 0 0 -7.70z"/>
  <path d="M631.25 199.45 c-24.25 -3 -43 -16.30 -50.25 -35.75 -5.55 -14.85 -5.75 -34.60 -0.55 -49.25 1.50 -4.15 6.40 -12.40 9.90 -16.65 7.30 -8.80 20.75 -16.60 33.15 -19.15 2.35 -0.45 7.70 -0.85 14.50 -1 9.65 -0.25 11.35 -0.15 16.50 0.85 6.10 1.15 14.80 3.85 17.60 5.40 4.65 2.70 5.90 3.45 8.65 5.65 6.75 5.40 11.05 12.40 12.20 19.80 2 13 -0.75 23.90 -7.80 31.25 -5.80 6.05 -12.75 9.95 -22.15 12.55 -8.75 2.40 -13.90 2.95 -24.55 2.75 -8.50 -0.20 -10.30 -0.40 -14.45 -1.55 -2.60 -0.70 -4.75 -1.25 -4.85 -1.15 -0.50 0.50 3.95 4.10 6.90 5.55 8.15 4.15 18.20 5.10 34.70 3.30 5.50 -0.60 12.40 -1.55 15.40 -2.10 2.95 -0.55 5.95 -0.95 6.75 -0.85 l1.35 0.15 0.05 16.75 c0 9.20 -0.05 17.20 -0.20 17.80 -0.20 1.10 -1 1.30 -12.85 3.50 -11.55 2.15 -31.40 3.20 -40 2.15z m14.40 -73.75 c6.10 -1.40 9.70 -3.90 9.10 -6.25 -0.85 -3.10 -5.95 -5.05 -13.15 -5 -5.70 0.05 -10.65 1.05 -14.70 3 -3.25 1.55 -7.25 5.10 -6.70 5.95 0.35 0.55 4.50 1.45 11.05 2.35 6.85 0.90 10.20 0.90 14.40 -0.05z"/>
  <path d="M343.80 198.95 c-14.40 -2.10 -29 -11.35 -37.25 -23.60 -4.80 -7.25 -7.70 -13.55 -9.65 -21.10 -1.30 -5.15 -1.85 -21.75 -0.90 -27.65 1.40 -9 4.50 -17.25 8.90 -23.85 2.90 -4.35 10.50 -12 14.40 -14.50 7.80 -5 17.35 -8.60 26.45 -10 7 -1.10 25.10 -0.80 30.25 0.45 5.90 1.50 12.70 3.85 16 5.60 9.35 4.90 18.20 13.75 22.80 22.80 5.65 11.20 6.95 17.80 7.70 39.05 0.75 21.30 2 29.25 6.80 42.90 1 2.85 1.95 6.15 2.05 7.35 l0.25 2.10 -19.15 -0.10 -19.10 -0.15 -1.90 -5.25 c-1.05 -2.90 -2 -6.10 -2.20 -7.10 -0.20 -1.05 -0.50 -1.90 -0.65 -1.85 -0.20 0 -1.45 1.35 -2.85 3.05 -4.30 5.20 -12.20 9.60 -20.90 11.60 -3.75 0.90 -15.80 1 -21.05 0.25z m25.30 -36.75 c7.70 -2.90 11.70 -7.50 13.95 -16.10 2.45 -9.20 -1 -22 -7.25 -27.25 -3.70 -3.10 -6 -4.30 -9.90 -5.10 -12.85 -2.70 -24.90 2.30 -29.65 12.35 -2.20 4.60 -2.95 8.50 -2.60 13.90 0.30 4.80 2.30 11.20 4.55 14.45 2.55 3.65 9.60 7.90 15 9.05 1.15 0.25 4.30 0.40 7.05 0.30 4 -0.15 5.75 -0.45 8.85 -1.60z"/>
  <path d="M489.25 199.15 c-0.55 -0.10 -3.45 -0.65 -6.50 -1.25 -18.30 -3.45 -32.90 -14.15 -40.40 -29.55 -5 -10.15 -6.10 -15.70 -6.05 -29.60 0.05 -8.70 0.20 -11.30 1.10 -15.30 4.35 -19.85 17.85 -35.70 36.35 -42.65 1.75 -0.70 5.55 -1.75 8.30 -2.35 4.55 -0.95 6.10 -1.05 14.65 -0.80 6.45 0.15 10.50 0.50 12.55 1.05 3.85 1.05 10.35 4.20 13.40 6.55 l2.40 1.85 -0.10 -27.70 -0.10 -27.65 19.10 -0.15 19.10 -0.10 -0.20 58.85 c-0.15 58.25 -0.15 58.95 -1.20 63.40 -3 12.50 -7.35 20.70 -15.20 28.70 -8.15 8.25 -18.70 13.40 -32.70 16 -4.35 0.85 -7.35 1.05 -14.50 1 -4.95 -0.05 -9.45 -0.15 -10 -0.30z m17.25 -35.90 c9.45 -2.45 15.15 -8 17.25 -16.80 0.95 -4.15 0.95 -12.40 0 -16.10 -0.80 -3.05 -3.15 -7.95 -4.60 -9.60 -7.35 -8.25 -22.40 -10.30 -32.95 -4.40 -1.30 0.75 -3.65 2.60 -5.25 4.20 -2.25 2.25 -3.15 3.65 -4.35 6.75 -2.05 5.35 -2.75 10.30 -2.10 14.50 1.25 7.60 4.05 13.20 8.40 16.55 6.05 4.65 16.35 6.80 23.60 4.90z"/>
  <path d="M118.50 142.95 l0 -55.55 -20.85 0.15 -20.90 0.15 0 -17.60 0 -17.65 61 0 61 0 0 2.05 c-0.05 1.10 -0.10 9.05 -0.15 17.65 l-0.10 15.60 -17.30 -0.20 c-9.50 -0.10 -18.90 0 -20.90 0.20 l-3.55 0.30 0 55.10 0 55.10 -19.10 0.15 -19.15 0.10 0 -55.55z"/>
  <path d="M212.65 163.15 l0.15 -35.40 1.25 -5.50 c4.65 -20.10 17.95 -34.60 37.70 -40.90 9.55 -3.05 13.20 -3.60 25.25 -3.60 6.95 0 11.10 0.20 11.70 0.55 0.85 0.50 0.90 1.60 1 18.65 l0.05 18.15 -7.25 -0.35 c-12.05 -0.60 -19 1.35 -24.90 6.90 -2.85 2.75 -4.40 5.30 -5.90 9.85 -0.85 2.50 -0.95 5.55 -1.20 34.75 l-0.25 32 -18.90 0.15 -18.90 0.10 0.20 -35.35z"/>
  <path d="M698.50 196.70 c0 -1.95 -0.35 -1.50 25.45 -36.70 7.50 -10.30 14.45 -19.75 15.35 -21 l1.60 -2.25 -1.80 -2.50 c-1 -1.40 -5.45 -7.35 -9.85 -13.30 -4.40 -5.95 -10.90 -14.80 -14.50 -19.70 -3.55 -4.90 -8.25 -11.20 -10.35 -14.10 -3.05 -4.15 -3.90 -5.60 -3.90 -6.95 l0 -1.70 20.75 0 20.75 0 3.75 5.15 c2.05 2.80 6.75 9.10 10.35 14 l6.60 8.95 1.15 -1.45 c0.65 -0.75 3.10 -4.10 5.50 -7.40 2.40 -3.30 6.35 -8.70 8.80 -11.95 2.45 -3.30 4.55 -6.25 4.70 -6.65 0.20 -0.55 4.10 -0.65 20.95 -0.65 l20.70 0 0 2.20 c0 1.20 -0.20 2.30 -0.40 2.40 -0.30 0.10 -4 4.90 -7.85 10.25 -1.70 2.35 -19 26 -24.40 33.35 -2.80 3.85 -5.60 7.65 -6.15 8.50 l-1.10 1.60 4.60 6.25 c2.50 3.45 8.05 11.05 12.30 16.90 4.25 5.85 9.45 12.95 11.50 15.80 2.05 2.85 6.05 8.30 8.90 12.15 4.20 5.80 5.10 7.35 5.10 8.80 l0 1.80 -20.65 0 -20.65 0 -11.35 -15.75 c-6.30 -8.65 -11.50 -15.75 -11.60 -15.75 -0.10 0 -1.95 2.40 -4.10 5.40 -2.15 2.95 -5.90 8.10 -8.40 11.40 -2.45 3.35 -5.90 8.05 -7.60 10.40 l-3.15 4.30 -20.50 0 -20.50 0 0 -1.80z"/>
 </g>
 <g fill="#ffffff" fill-opacity="0">
  <path d="M0 154 l0 -154 473.50 0 473.50 0 0 154 0 154 -473.50 0 -473.50 0 0 -154z m160.40 79.40 l0.15 -7.85 2.35 -0.15 c2 -0.15 2.35 -0.30 2.50 -1.25 0.15 -1.05 0 -1.10 -5.75 -1.25 -6.10 -0.15 -7.60 0.25 -7 1.80 0.25 0.55 1 0.80 2.60 0.80 l2.25 0 0 7.65 c0 4.25 0.15 7.85 0.35 8.05 0.20 0.20 0.80 0.30 1.40 0.20 0.95 -0.15 1 -0.55 1.15 -8z m23.35 7.50 c0.15 -0.35 0.35 -1.90 0.40 -3.40 0.15 -2.70 0.15 -2.70 1.85 -2.75 1.50 0 1.90 0.35 3.95 3.20 2.40 3.35 3.05 3.85 4.35 3.35 0.65 -0.25 0.35 -0.95 -1.50 -3.55 l-2.25 -3.20 1.75 -1.75 c1.45 -1.45 1.70 -2.05 1.70 -4 0 -1.80 -0.30 -2.60 -1.45 -3.90 -1.35 -1.50 -1.60 -1.60 -6.05 -1.85 -2.50 -0.20 -4.70 -0.20 -4.80 -0.10 -0.35 0.35 -0.20 17.85 0.15 18.20 0.55 0.55 1.65 0.40 1.90 -0.25z m29.75 -1 c0.55 -0.90 1.05 -1.85 1.15 -2.05 0.05 -0.25 2 -0.55 4.30 -0.70 4.50 -0.25 5.65 0.20 6.25 2.65 0.25 0.95 0.65 1.20 1.80 1.20 0.85 0 1.50 -0.10 1.50 -0.25 0 -0.10 -1.40 -3.30 -3.05 -7.10 -1.70 -3.80 -3.50 -7.85 -4 -9 -0.80 -1.85 -1 -2.05 -2.20 -1.75 -1.05 0.30 -1.70 1.25 -3.30 4.85 -3.80 8.50 -5.45 12.80 -5.20 13.30 0.60 0.90 1.80 0.40 2.75 -1.15z m39.35 0.80 c2.10 -0.30 4.40 -2.30 5.75 -4.85 1.95 -3.85 0.40 -9.20 -3.45 -11.70 -1.20 -0.80 -8.05 -1.70 -9.75 -1.25 -0.80 0.20 -0.90 1.05 -0.90 9.10 0 6.70 0.15 8.95 0.65 9.15 0.60 0.25 4.85 0 7.70 -0.45z m31.30 0.35 c2.70 -0.05 2.85 -0.10 2.85 -1.30 0 -1.25 -0.05 -1.25 -4.25 -1.25 l-4.25 0 0 -2.45 c0 -2.20 0.10 -2.45 1.30 -2.75 0.70 -0.20 2 -0.20 2.95 0 1.40 0.25 1.70 0.15 2 -0.80 0.45 -1.40 -0.45 -2.05 -2.75 -1.95 -3.50 0.15 -3.50 0.15 -3.50 -2.55 l0 -2.50 4 0 c3.95 0 4 0 4 -1.25 0 -0.70 -0.30 -1.25 -0.60 -1.25 -0.35 0 -2.80 -0.05 -5.40 -0.10 l-4.75 -0.10 -0.15 8.70 c-0.05 4.80 0 9 0.10 9.30 0.15 0.40 1.15 0.60 2.90 0.50 1.45 -0.10 3.95 -0.20 5.55 -0.25z m46.95 -0.15 c0.45 -0.35 1.65 -2.95 2.60 -5.80 1 -2.85 2 -5.50 2.20 -5.95 0.45 -0.80 0.65 -0.30 3.40 7.45 1.45 4.20 2.35 5.45 3.30 4.50 0.55 -0.55 5.90 -16.75 5.90 -17.85 0 -0.75 -1.85 -0.80 -2.40 -0.10 -0.25 0.35 -1.30 3.15 -2.30 6.25 -1.05 3.05 -1.95 5.60 -2.05 5.60 -0.05 0 -1.10 -2.70 -2.25 -5.95 -1.90 -5.45 -2.90 -7 -4 -6.30 -0.20 0.10 -1.35 2.95 -2.55 6.25 -1.20 3.30 -2.30 5.85 -2.45 5.60 -0.15 -0.20 -1.05 -2.80 -2 -5.75 -0.95 -2.95 -2 -5.60 -2.30 -5.90 -0.30 -0.25 -1 -0.30 -1.55 -0.10 -0.95 0.40 -0.85 0.85 2 9.55 1.65 5 3.15 9.10 3.35 9.10 0.15 0 0.65 -0.30 1.10 -0.60z m36.40 -8.90 c0 -4.90 -0.20 -9.05 -0.40 -9.20 -0.25 -0.15 -0.90 -0.10 -1.50 0.05 -1.10 0.25 -1.10 0.45 -1.10 9.15 0 8.85 0 8.95 1.15 9.10 0.60 0.10 1.25 0.10 1.50 0 0.20 -0.10 0.35 -4.20 0.35 -9.10z m23.90 1.35 l0.15 -7.85 2.25 0 c2.15 0 2.25 -0.05 2.10 -1.30 l-0.15 -1.35 -6 0.10 c-3.30 0.05 -6.05 0.20 -6.15 0.30 -0.10 0.10 -0.05 0.65 0.15 1.20 0.25 0.85 0.75 1.05 2.55 1.05 l2.20 0 0 7.70 c0 7.90 0.10 8.40 2 8.15 0.60 -0.10 0.75 -1.45 0.90 -8z m35 -1.10 c0.05 -4.90 -0.05 -9.10 -0.30 -9.35 -0.55 -0.55 -2.35 0.15 -2.40 1 -0.05 0.30 -0.10 2.05 -0.10 3.85 l-0.10 3.30 -4.10 -0.15 -4.15 -0.15 -0.15 -4.15 c-0.10 -3.55 -0.25 -4.15 -0.90 -3.90 -0.45 0.15 -1 0.30 -1.25 0.30 -0.25 0 -0.45 3.85 -0.45 9 l0 9 1.25 0 c1.15 0 1.20 -0.15 1.35 -3.60 l0.15 -3.65 3.95 -0.15 c2.55 -0.10 4.10 0.05 4.30 0.40 0.20 0.30 0.35 2 0.30 3.75 -0.05 3.20 0.30 3.85 1.95 3.50 0.30 -0.05 0.55 -3.55 0.65 -9z m28.25 8.70 c2.50 -0.70 5.65 -3.55 6.40 -5.80 1.35 -4.05 -0.50 -9.10 -4.05 -11.10 -3.10 -1.70 -5.55 -1.85 -8.65 -0.40 -3.60 1.65 -5 3.65 -5.25 7.60 -0.30 4.75 1.70 8.10 5.75 9.55 2.35 0.80 3.35 0.85 5.80 0.15z m33.10 -0.25 c3 -1.40 3.45 -2.65 3.65 -10.10 0.10 -3.65 0.10 -6.95 -0.05 -7.30 -0.15 -0.45 -0.75 -0.60 -1.55 -0.45 l-1.30 0.25 0 6.60 c-0.05 4.60 -0.25 6.80 -0.70 7.40 -0.95 1.25 -3.10 1.95 -4.45 1.45 -2.25 -0.85 -2.55 -1.80 -2.85 -8.95 -0.25 -6.45 -0.30 -6.85 -1.25 -6.85 -0.95 0 -1 0.35 -1.10 7 -0.15 7.80 0.10 8.80 2.80 10.60 2 1.35 4.45 1.45 6.80 0.35z m76.50 0.30 c2.65 0 3.40 -0.20 4.65 -1.25 0.80 -0.70 1.60 -1.85 1.75 -2.60 0.35 -1.75 -0.70 -4.30 -2.15 -5.30 l-1.15 -0.80 1.10 -1.35 c1.25 -1.60 1.35 -3.55 0.15 -5.05 -1.05 -1.40 -4.75 -2.15 -8.45 -1.80 l-2.65 0.30 0 8.85 c0 4.85 0.15 9 0.35 9.20 0.25 0.20 1.05 0.25 1.85 0.10 0.80 -0.15 2.85 -0.30 4.55 -0.30z m36.80 -1.20 c3.95 -2.60 5.10 -8.75 2.45 -13.05 -1.60 -2.55 -5.70 -4.50 -8.65 -4.05 -2.80 0.45 -5.40 2 -6.85 4.15 -1.80 2.60 -1.80 7.70 0 10.25 2.90 4.30 8.80 5.50 13.05 2.70z m22.70 1.30 c0.30 -0.20 0.50 -0.75 0.55 -1.20 0 -0.50 0.05 -1.90 0.10 -3.10 0.10 -2 0.20 -2.20 1.50 -2.20 1.75 0 2.30 0.50 4.40 3.75 1.80 2.80 2.65 3.45 3.95 2.95 0.65 -0.20 0.35 -0.90 -1.40 -3.55 l-2.20 -3.30 1.65 -1.65 c1.45 -1.45 1.70 -2.05 1.70 -4 0 -1.80 -0.30 -2.60 -1.45 -3.90 -1.40 -1.55 -1.70 -1.65 -5.90 -1.95 -2.40 -0.15 -4.55 -0.20 -4.75 -0.10 -0.50 0.25 -0.55 17.85 -0.05 18.30 0.40 0.45 1.25 0.45 1.90 -0.05z m37.85 -1.15 c5.35 -2.70 5.95 -11.70 1 -15.30 -1.85 -1.35 -2.85 -1.60 -7.45 -1.85 -2.80 -0.10 -3.65 0 -3.85 0.55 -0.35 0.85 -0.40 17.40 -0.10 17.70 0.65 0.60 8.70 -0.25 10.40 -1.10z m27.60 1.05 l4.65 0 -0.25 -1.25 c-0.20 -1.20 -0.35 -1.25 -4.40 -1.25 l-4.20 0 0 -2.10 c0 -3.10 0.50 -3.60 3.15 -3.30 2.60 0.30 3.55 -0.10 3.25 -1.40 -0.15 -0.70 -0.55 -0.90 -1.65 -0.80 -0.85 0.05 -2.25 0 -3.15 -0.15 -1.60 -0.30 -1.65 -0.35 -1.50 -2.65 l0.15 -2.35 3.80 -0.15 c3.25 -0.10 3.90 -0.30 4.10 -1.05 0.10 -0.50 0.10 -1.15 -0.10 -1.35 -0.15 -0.25 -2.60 -0.45 -5.40 -0.45 l-5.15 0 0 9.05 c0 4.95 0.15 9.20 0.35 9.40 0.20 0.15 0.65 0.20 1.05 0.05 0.35 -0.15 2.75 -0.25 5.30 -0.25z m22.50 0.20 c0.60 -0.25 0.80 -1.05 0.80 -3.20 0 -3.25 0.35 -3.70 2.45 -3.25 1 0.20 1.95 1.15 3.35 3.25 1.05 1.65 2.20 3 2.55 3 0.30 0 0.90 0.15 1.35 0.30 1.30 0.50 0.90 -0.65 -1.25 -3.85 l-2.05 -3.05 1.60 -1.30 c2 -1.70 2.45 -4.55 1.15 -7.10 -1.20 -2.30 -2.55 -2.85 -7.65 -3.10 l-4.20 -0.15 -0.20 8.25 c-0.20 10.35 -0.05 11 2.10 10.20z m36.70 -0.70 c2.05 -1.25 2.80 -2.95 2.40 -5.15 -0.40 -2.15 -1.20 -2.85 -5.40 -4.75 -3.10 -1.40 -3.40 -1.65 -3.40 -3.05 0 -2.70 3.35 -3.30 5.75 -1.05 0.85 0.80 1.15 0.85 1.90 0.30 0.80 -0.65 0.80 -0.75 -0.20 -1.95 -1.40 -1.85 -4.30 -2.65 -6.65 -1.85 -5.55 1.80 -4.90 7.50 1.10 9.65 3.15 1.15 4.35 2.40 3.90 4.05 -0.65 2.65 -4.85 2.95 -6.65 0.50 -0.80 -1.10 -1 -1.15 -1.85 -0.55 -0.90 0.65 -0.90 0.75 -0.05 2.05 1.85 2.80 6.10 3.65 9.15 1.80z m-232.90 -7.25 l0 -7.75 2.25 0 c2.05 0 2.25 -0.10 2.25 -1.25 0 -1.05 -0.25 -1.25 -1.60 -1.25 -0.90 0 -3.65 -0.05 -6.15 -0.10 -4.50 -0.10 -4.50 -0.10 -4.50 1.10 0 1.15 0.20 1.25 2.40 1.40 l2.35 0.15 0 7.75 0 7.70 1.50 0 1.50 0 0 -7.75z m143.25 -35.80 c9 -1.05 23.75 -3.95 23.80 -4.65 0.15 -2.35 0.05 -31.85 -0.10 -32.05 -0.10 -0.10 -2.35 0.25 -4.95 0.75 -2.60 0.50 -9.35 1.40 -15 2 -12.45 1.35 -24.25 1.20 -30.55 -0.45 -5.10 -1.30 -10.55 -4.10 -13 -6.70 -1.90 -2 -4.25 -6.25 -3.70 -6.75 0.10 -0.15 1.30 0.25 2.60 0.80 1.30 0.55 4.65 1.65 7.40 2.40 6.65 1.80 18.60 2.25 26.40 0.95 29 -4.70 43.30 -20.10 39.80 -42.90 -1.15 -7.40 -5.45 -14.40 -12.20 -19.80 -2.75 -2.20 -4 -2.95 -8.65 -5.65 -2.80 -1.55 -11.50 -4.25 -17.60 -5.45 -5.05 -0.95 -6.85 -1.05 -15 -0.80 -5.20 0.15 -10.90 0.60 -13 1 -12.35 2.55 -25.80 10.30 -33.15 19.15 -3.70 4.50 -8.45 12.60 -10.05 17.20 -4.95 14.10 -4.70 31.30 0.70 45.70 7.25 19.45 26 32.80 50.25 35.75 4.55 0.55 19.30 0.30 26 -0.50z m-295.40 -0.25 c5.20 -1.20 10.75 -3.50 14.75 -6.15 3.30 -2.20 4.55 -3.50 10.20 -10.40 l1.05 -1.30 1.30 4.70 c0.70 2.60 1.95 6.50 2.75 8.70 l1.50 4 17.60 0.15 c16.65 0.10 17.60 0.05 17.25 -0.75 -1.25 -3 -4 -11.65 -5.25 -16.35 -2.10 -7.95 -2.95 -15.55 -3.50 -32.15 -0.75 -21.25 -2.05 -27.85 -7.70 -39.05 -4.60 -9.05 -13.45 -17.90 -22.80 -22.80 -3.30 -1.75 -10.15 -4.15 -16 -5.55 -5.15 -1.30 -20.40 -1.60 -27.25 -0.55 -9.10 1.45 -18.65 5.05 -26.45 10.05 -3.90 2.50 -11.50 10.15 -14.40 14.50 -4.45 6.60 -7.50 14.85 -8.95 23.90 -0.85 5.60 -0.30 19.40 1 24.60 2.50 10.05 8.05 20.35 14.90 27.80 3.85 4.10 11.40 9.65 16.40 12 4.65 2.15 11.40 4.30 15.55 4.90 5.10 0.75 14.35 0.60 18.05 -0.25z m148.90 -0.25 c14 -2.60 24.55 -7.75 32.70 -16 7.85 -8 12.20 -16.20 15.20 -28.70 1.05 -4.45 1.05 -5.20 1.20 -61.90 l0.20 -57.35 -17.55 0.10 -17.55 0.15 0.05 28.05 c0 15.45 -0.10 28.40 -0.30 28.85 -0.25 0.70 -0.90 0.30 -3.30 -1.85 -3.35 -3.05 -10.50 -6.85 -15.15 -8.10 -1.80 -0.45 -6.20 -0.90 -11.05 -1.05 -7 -0.25 -8.65 -0.15 -13.10 0.80 -14.75 3.15 -26.50 10.90 -35.30 23.25 -4.15 5.80 -7.75 14.15 -9.40 21.75 -1.45 6.65 -1.55 20.85 -0.25 27.05 2.65 12.30 8.45 22.95 16.40 30.05 8.60 7.65 17.90 12.20 29.20 14.35 3.05 0.60 5.95 1.15 6.50 1.25 0.55 0.15 4.40 0.25 8.50 0.30 5.65 0.05 8.85 -0.20 13 -1z m-357 -55.45 l0 -55.25 20.90 0 20.85 0 0.10 -15.60 c0 -8.60 0.05 -15.90 0.10 -16.15 0.05 -0.35 -19.45 -0.50 -59.45 -0.50 l-59.50 0 0 16.05 0 16.05 20.90 -0.10 20.85 -0.05 0 55.55 0 55.50 17.65 -0.10 17.60 -0.15 0 -55.25z m93.75 23.25 c0.30 -34.85 0.20 -33.75 3.25 -39.75 1.50 -3 5.90 -7.05 9.60 -8.90 5.10 -2.60 14.05 -3.75 22.65 -2.90 l3.75 0.40 -0.10 -16.65 c-0.10 -15.35 -0.20 -16.70 -1 -17.15 -0.55 -0.35 -4.55 -0.55 -10.15 -0.55 -10.40 0 -14.55 0.65 -23.75 3.60 -19.75 6.30 -33.05 20.80 -37.70 40.90 l-1.25 5.50 -0.15 33.90 -0.20 33.85 17.40 -0.10 17.40 -0.15 0.25 -32z m491.65 28.65 c1.45 -2 4.75 -6.55 7.35 -10.05 9.80 -13.30 14 -19.10 14.15 -19.55 0.10 -0.25 0.40 -0.35 0.70 -0.15 0.25 0.15 5.85 7.75 12.40 16.85 l11.95 16.50 19.15 0 c10.55 0 19.15 -0.15 19.15 -0.30 0 -0.15 -2.30 -3.45 -5.10 -7.30 -2.85 -3.85 -6.85 -9.30 -8.90 -12.15 -3.80 -5.25 -13.35 -18.35 -23.30 -32 -3.05 -4.10 -5.65 -7.75 -5.85 -8.05 -0.15 -0.30 1.75 -3.35 4.20 -6.75 2.50 -3.40 5.60 -7.65 6.90 -9.40 1.25 -1.75 6.35 -8.75 11.30 -15.50 4.95 -6.75 9.45 -12.90 10 -13.70 3.85 -5.35 7.55 -10.15 7.85 -10.25 0.20 -0.10 0.40 -0.50 0.40 -0.90 0 -0.60 -3 -0.70 -19.25 -0.70 -10.60 0 -19.25 0.15 -19.25 0.40 0 0.20 -2.20 3.30 -4.85 6.95 -2.70 3.60 -7.45 10.05 -10.60 14.35 -3.15 4.30 -5.85 7.95 -6.05 8.05 -0.35 0.20 -6.05 -7.30 -18.75 -24.60 l-3.75 -5.15 -19.25 0 c-10.60 0 -19.25 0.10 -19.25 0.20 0 0.10 1.75 2.55 3.90 5.45 2.10 2.90 6.80 9.25 10.35 14.10 3.60 4.90 8.85 12.05 11.75 15.95 11.90 16 15.15 20.55 15.15 21.05 0 0.50 -1.70 2.90 -20.45 28.50 -15.95 21.80 -22.70 31.15 -22.70 31.45 0 0.15 8.55 0.30 19 0.30 l19 0 2.65 -3.60z"/>
  <path d="M184.45 232.45 c-0.05 -0.10 -0.15 -1.70 -0.20 -3.55 l-0.10 -3.40 2.60 0 c1.90 0 2.80 0.25 3.40 0.90 1.05 1.15 1.10 4.25 0.15 5.05 -0.65 0.55 -5.70 1.40 -5.85 1z"/>
  <path d="M216 234.80 c0 -0.30 3 -7.50 3.25 -7.70 0.20 -0.20 3.75 7.05 3.75 7.70 0 0.10 -1.55 0.20 -3.50 0.20 -1.90 0 -3.50 -0.10 -3.50 -0.20z"/>
  <path d="M247.45 236.70 c-0.05 -3.50 -0.05 -9.95 0 -10.55 0.05 -0.80 2.60 -0.85 5.15 -0.15 2.40 0.70 3.90 3.05 3.90 6.20 0 1.95 -0.30 2.60 -1.65 4.15 -1.50 1.60 -2.05 1.85 -4.50 2.05 l-2.85 0.20 -0.05 -1.90z"/>
  <path d="M450.95 238.50 c-3.55 -1 -4.95 -2.95 -4.95 -6.95 0 -2.05 0.25 -2.80 1.40 -4.10 1.20 -1.35 1.85 -1.65 4.20 -1.85 2.65 -0.20 2.90 -0.10 4.65 1.50 1.65 1.50 1.95 2.10 2.15 4.50 0.20 2.60 0.10 2.90 -1.45 4.60 -1.85 2 -4 2.85 -6 2.30z"/>
  <path d="M560.85 238.65 c-0.20 -0.15 -0.35 -1.65 -0.35 -3.25 l0 -2.90 2.25 0 c4 0 6.15 1.95 4.80 4.35 -0.75 1.40 -5.75 2.75 -6.70 1.80z"/>
  <path d="M561.15 230.20 c-0.40 -0.15 -0.65 -1.20 -0.65 -2.50 l0 -2.20 2.05 0 c1.10 0 2.45 0.25 3 0.50 1.10 0.60 1.25 2.60 0.25 3.45 -0.80 0.70 -3.75 1.15 -4.65 0.75z"/>
  <path d="M591.45 236.55 c-1.75 -1.70 -1.95 -2.20 -1.95 -4.35 0 -4.15 2.40 -6.65 6.25 -6.65 3.85 0 6.25 2.50 6.25 6.65 0 2.15 -0.20 2.65 -1.95 4.35 -1.70 1.70 -2.20 1.95 -4.30 1.95 -2.10 0 -2.60 -0.25 -4.30 -1.95z"/>
  <path d="M624.40 231.45 c-0.10 -0.65 -0.20 -2.20 -0.15 -3.45 l0 -2.25 2.55 -0.15 c2.95 -0.15 4.35 0.95 4.35 3.45 0 2.10 -1.15 3.05 -4.05 3.35 -2.30 0.20 -2.50 0.15 -2.70 -0.95z"/>
  <path d="M654 232.05 l0 -6.55 2 0 c2.30 0 4.95 0.95 5.90 2.15 1.10 1.30 1.60 4.40 1.10 6.40 -0.75 2.75 -2.30 3.90 -5.90 4.25 l-3.10 0.35 0 -6.60z"/>
  <path d="M713.40 232.15 c-0.75 -0.20 -0.90 -0.80 -0.90 -3.45 l0 -3.20 2.50 0 c2.90 0 4.50 1.20 4.50 3.40 0 1.90 -0.55 2.55 -2.55 3.10 -1.75 0.50 -2.10 0.55 -3.55 0.15z"/>
  <path d="M629.75 127.25 c-4.40 -0.60 -12.70 -2.20 -13.15 -2.55 -0.40 -0.25 2.90 -4.60 4.65 -6.10 3.70 -3.25 8.65 -4.90 16.80 -5.65 5.15 -0.40 6.75 -0.40 10.15 0.30 5.95 1.20 7.85 2.65 8.20 6.25 0.20 2.20 0.05 2.75 -0.95 3.80 -3.85 4.15 -13.30 5.60 -25.70 3.95z"/>
  <path d="M351.70 165 c-5.40 -1.15 -12.45 -5.40 -15 -9.05 -0.75 -1.10 -2 -3.80 -2.85 -6.10 -1.25 -3.40 -1.55 -5.10 -1.70 -9.85 -0.30 -7 0.30 -10.60 2.60 -15.40 4.05 -8.50 12.45 -13.10 24.05 -13.10 5.95 0 11.25 1 14 2.60 7.90 4.55 11.90 11.95 12.55 23.40 0.75 13.30 -4.30 22.25 -14.75 26.20 -3.40 1.30 -4.60 1.45 -10.35 1.60 -3.55 0.10 -7.40 -0.05 -8.55 -0.30z"/>
  <path d="M493.75 165 c-4.10 -0.65 -9.30 -2.85 -12.35 -5.15 -6.30 -4.85 -9.85 -15.65 -8.45 -25.70 0.95 -6.75 3.10 -11.70 6.50 -15.10 5.50 -5.50 10.95 -7.55 20 -7.55 8.55 0 13.45 1.40 18.30 5.20 2.75 2.15 3.55 3.10 5.25 6.40 2.35 4.50 3 7.80 3 15.15 0 7.55 -0.80 11.55 -3.10 15.85 -4.65 8.75 -15.95 12.95 -29.15 10.90z"/>
 </g>
</svg>